<svg xmlns="http://www.w3.org/2000/svg" width="577" height="213" viewBox="0 0 577 213">
<rect width="577" height="213" fill="#0d1117"/>
<rect x="3" y="3" width="11" height="11" rx="2" ry="2" fill="#161b22"/>
<rect x="17" y="3" width="11" height="11" rx="2" ry="2" fill="#161b22"/>
<rect x="31" y="3" width="11" height="11" rx="2" ry="2" fill="#161b22"/>
<rect x="45" y="3" width="11" height="11" rx="2" ry="2" fill="#161b22"/>
<rect x="59" y="3" width="11" height="11" rx="2" ry="2" fill="#161b22"/>
<rect x="73" y="3" width="11" height="11" rx="2" ry="2" fill="#161b22"/>
<rect x="87" y="3" width="11" height="11" rx="2" ry="2" fill="#39d353"/>
<rect x="101" y="3" width="11" height="11" rx="2" ry="2" fill="#161b22"/>
<rect x="115" y="3" width="11" height="11" rx="2" ry="2" fill="#161b22"/>
<rect x="129" y="3" width="11" height="11" rx="2" ry="2" fill="#161b22"/>
<rect x="143" y="3" width="11" height="11" rx="2" ry="2" fill="#26a641"/>
<rect x="157" y="3" width="11" height="11" rx="2" ry="2" fill="#161b22"/>
<rect x="171" y="3" width="11" height="11" rx="2" ry="2" fill="#161b22"/>
<rect x="185" y="3" width="11" height="11" rx="2" ry="2" fill="#39d353"/>
<rect x="199" y="3" width="11" height="11" rx="2" ry="2" fill="#26a641"/>
<rect x="213" y="3" width="11" height="11" rx="2" ry="2" fill="#26a641"/>
<rect x="227" y="3" width="11" height="11" rx="2" ry="2" fill="#161b22"/>
<rect x="241" y="3" width="11" height="11" rx="2" ry="2" fill="#161b22"/>
<rect x="255" y="3" width="11" height="11" rx="2" ry="2" fill="#26a641"/>
<rect x="269" y="3" width="11" height="11" rx="2" ry="2" fill="#39d353"/>
<rect x="283" y="3" width="11" height="11" rx="2" ry="2" fill="#26a641"/>
<rect x="297" y="3" width="11" height="11" rx="2" ry="2" fill="#26a641"/>
<rect x="311" y="3" width="11" height="11" rx="2" ry="2" fill="#161b22"/>
<rect x="325" y="3" width="11" height="11" rx="2" ry="2" fill="#161b22"/>
<rect x="339" y="3" width="11" height="11" rx="2" ry="2" fill="#26a641"/>
<rect x="353" y="3" width="11" height="11" rx="2" ry="2" fill="#161b22"/>
<rect x="367" y="3" width="11" height="11" rx="2" ry="2" fill="#161b22"/>
<rect x="381" y="3" width="11" height="11" rx="2" ry="2" fill="#161b22"/>
<rect x="395" y="3" width="11" height="11" rx="2" ry="2" fill="#26a641"/>
<rect x="409" y="3" width="11" height="11" rx="2" ry="2" fill="#161b22"/>
<rect x="423" y="3" width="11" height="11" rx="2" ry="2" fill="#39d353"/>
<rect x="437" y="3" width="11" height="11" rx="2" ry="2" fill="#161b22"/>
<rect x="451" y="3" width="11" height="11" rx="2" ry="2" fill="#161b22"/>
<rect x="465" y="3" width="11" height="11" rx="2" ry="2" fill="#161b22"/>
<rect x="479" y="3" width="11" height="11" rx="2" ry="2" fill="#39d353"/>
<rect x="493" y="3" width="11" height="11" rx="2" ry="2" fill="#161b22"/>
<rect x="507" y="3" width="11" height="11" rx="2" ry="2" fill="#161b22"/>
<rect x="521" y="3" width="11" height="11" rx="2" ry="2" fill="#161b22"/>
<rect x="535" y="3" width="11" height="11" rx="2" ry="2" fill="#161b22"/>
<rect x="549" y="3" width="11" height="11" rx="2" ry="2" fill="#161b22"/>
<rect x="563" y="3" width="11" height="11" rx="2" ry="2" fill="#161b22"/>
<rect x="3" y="17" width="11" height="11" rx="2" ry="2" fill="#161b22"/>
<rect x="17" y="17" width="11" height="11" rx="2" ry="2" fill="#161b22"/>
<rect x="31" y="17" width="11" height="11" rx="2" ry="2" fill="#161b22"/>
<rect x="45" y="17" width="11" height="11" rx="2" ry="2" fill="#161b22"/>
<rect x="59" y="17" width="11" height="11" rx="2" ry="2" fill="#161b22"/>
<rect x="73" y="17" width="11" height="11" rx="2" ry="2" fill="#161b22"/>
<rect x="87" y="17" width="11" height="11" rx="2" ry="2" fill="#26a641"/>
<rect x="101" y="17" width="11" height="11" rx="2" ry="2" fill="#161b22"/>
<rect x="115" y="17" width="11" height="11" rx="2" ry="2" fill="#161b22"/>
<rect x="129" y="17" width="11" height="11" rx="2" ry="2" fill="#161b22"/>
<rect x="143" y="17" width="11" height="11" rx="2" ry="2" fill="#26a641"/>
<rect x="157" y="17" width="11" height="11" rx="2" ry="2" fill="#161b22"/>
<rect x="171" y="17" width="11" height="11" rx="2" ry="2" fill="#26a641"/>
<rect x="185" y="17" width="11" height="11" rx="2" ry="2" fill="#161b22"/>
<rect x="199" y="17" width="11" height="11" rx="2" ry="2" fill="#161b22"/>
<rect x="213" y="17" width="11" height="11" rx="2" ry="2" fill="#161b22"/>
<rect x="227" y="17" width="11" height="11" rx="2" ry="2" fill="#39d353"/>
<rect x="241" y="17" width="11" height="11" rx="2" ry="2" fill="#161b22"/>
<rect x="255" y="17" width="11" height="11" rx="2" ry="2" fill="#26a641"/>
<rect x="269" y="17" width="11" height="11" rx="2" ry="2" fill="#161b22"/>
<rect x="283" y="17" width="11" height="11" rx="2" ry="2" fill="#161b22"/>
<rect x="297" y="17" width="11" height="11" rx="2" ry="2" fill="#161b22"/>
<rect x="311" y="17" width="11" height="11" rx="2" ry="2" fill="#26a641"/>
<rect x="325" y="17" width="11" height="11" rx="2" ry="2" fill="#161b22"/>
<rect x="339" y="17" width="11" height="11" rx="2" ry="2" fill="#26a641"/>
<rect x="353" y="17" width="11" height="11" rx="2" ry="2" fill="#161b22"/>
<rect x="367" y="17" width="11" height="11" rx="2" ry="2" fill="#161b22"/>
<rect x="381" y="17" width="11" height="11" rx="2" ry="2" fill="#161b22"/>
<rect x="395" y="17" width="11" height="11" rx="2" ry="2" fill="#26a641"/>
<rect x="409" y="17" width="11" height="11" rx="2" ry="2" fill="#161b22"/>
<rect x="423" y="17" width="11" height="11" rx="2" ry="2" fill="#39d353"/>
<rect x="437" y="17" width="11" height="11" rx="2" ry="2" fill="#161b22"/>
<rect x="451" y="17" width="11" height="11" rx="2" ry="2" fill="#161b22"/>
<rect x="465" y="17" width="11" height="11" rx="2" ry="2" fill="#161b22"/>
<rect x="479" y="17" width="11" height="11" rx="2" ry="2" fill="#26a641"/>
<rect x="493" y="17" width="11" height="11" rx="2" ry="2" fill="#161b22"/>
<rect x="507" y="17" width="11" height="11" rx="2" ry="2" fill="#161b22"/>
<rect x="521" y="17" width="11" height="11" rx="2" ry="2" fill="#161b22"/>
<rect x="535" y="17" width="11" height="11" rx="2" ry="2" fill="#161b22"/>
<rect x="549" y="17" width="11" height="11" rx="2" ry="2" fill="#161b22"/>
<rect x="563" y="17" width="11" height="11" rx="2" ry="2" fill="#161b22"/>
<rect x="3" y="31" width="11" height="11" rx="2" ry="2" fill="#161b22"/>
<rect x="17" y="31" width="11" height="11" rx="2" ry="2" fill="#161b22"/>
<rect x="31" y="31" width="11" height="11" rx="2" ry="2" fill="#161b22"/>
<rect x="45" y="31" width="11" height="11" rx="2" ry="2" fill="#161b22"/>
<rect x="59" y="31" width="11" height="11" rx="2" ry="2" fill="#161b22"/>
<rect x="73" y="31" width="11" height="11" rx="2" ry="2" fill="#161b22"/>
<rect x="87" y="31" width="11" height="11" rx="2" ry="2" fill="#161b22"/>
<rect x="101" y="31" width="11" height="11" rx="2" ry="2" fill="#26a641"/>
<rect x="115" y="31" width="11" height="11" rx="2" ry="2" fill="#161b22"/>
<rect x="129" y="31" width="11" height="11" rx="2" ry="2" fill="#26a641"/>
<rect x="143" y="31" width="11" height="11" rx="2" ry="2" fill="#161b22"/>
<rect x="157" y="31" width="11" height="11" rx="2" ry="2" fill="#161b22"/>
<rect x="171" y="31" width="11" height="11" rx="2" ry="2" fill="#26a641"/>
<rect x="185" y="31" width="11" height="11" rx="2" ry="2" fill="#161b22"/>
<rect x="199" y="31" width="11" height="11" rx="2" ry="2" fill="#161b22"/>
<rect x="213" y="31" width="11" height="11" rx="2" ry="2" fill="#161b22"/>
<rect x="227" y="31" width="11" height="11" rx="2" ry="2" fill="#39d353"/>
<rect x="241" y="31" width="11" height="11" rx="2" ry="2" fill="#161b22"/>
<rect x="255" y="31" width="11" height="11" rx="2" ry="2" fill="#39d353"/>
<rect x="269" y="31" width="11" height="11" rx="2" ry="2" fill="#161b22"/>
<rect x="283" y="31" width="11" height="11" rx="2" ry="2" fill="#161b22"/>
<rect x="297" y="31" width="11" height="11" rx="2" ry="2" fill="#161b22"/>
<rect x="311" y="31" width="11" height="11" rx="2" ry="2" fill="#26a641"/>
<rect x="325" y="31" width="11" height="11" rx="2" ry="2" fill="#161b22"/>
<rect x="339" y="31" width="11" height="11" rx="2" ry="2" fill="#26a641"/>
<rect x="353" y="31" width="11" height="11" rx="2" ry="2" fill="#161b22"/>
<rect x="367" y="31" width="11" height="11" rx="2" ry="2" fill="#161b22"/>
<rect x="381" y="31" width="11" height="11" rx="2" ry="2" fill="#161b22"/>
<rect x="395" y="31" width="11" height="11" rx="2" ry="2" fill="#39d353"/>
<rect x="409" y="31" width="11" height="11" rx="2" ry="2" fill="#161b22"/>
<rect x="423" y="31" width="11" height="11" rx="2" ry="2" fill="#26a641"/>
<rect x="437" y="31" width="11" height="11" rx="2" ry="2" fill="#161b22"/>
<rect x="451" y="31" width="11" height="11" rx="2" ry="2" fill="#161b22"/>
<rect x="465" y="31" width="11" height="11" rx="2" ry="2" fill="#161b22"/>
<rect x="479" y="31" width="11" height="11" rx="2" ry="2" fill="#26a641"/>
<rect x="493" y="31" width="11" height="11" rx="2" ry="2" fill="#161b22"/>
<rect x="507" y="31" width="11" height="11" rx="2" ry="2" fill="#161b22"/>
<rect x="521" y="31" width="11" height="11" rx="2" ry="2" fill="#161b22"/>
<rect x="535" y="31" width="11" height="11" rx="2" ry="2" fill="#161b22"/>
<rect x="549" y="31" width="11" height="11" rx="2" ry="2" fill="#161b22"/>
<rect x="563" y="31" width="11" height="11" rx="2" ry="2" fill="#161b22"/>
<rect x="3" y="45" width="11" height="11" rx="2" ry="2" fill="#161b22"/>
<rect x="17" y="45" width="11" height="11" rx="2" ry="2" fill="#161b22"/>
<rect x="31" y="45" width="11" height="11" rx="2" ry="2" fill="#161b22"/>
<rect x="45" y="45" width="11" height="11" rx="2" ry="2" fill="#161b22"/>
<rect x="59" y="45" width="11" height="11" rx="2" ry="2" fill="#161b22"/>
<rect x="73" y="45" width="11" height="11" rx="2" ry="2" fill="#161b22"/>
<rect x="87" y="45" width="11" height="11" rx="2" ry="2" fill="#161b22"/>
<rect x="101" y="45" width="11" height="11" rx="2" ry="2" fill="#161b22"/>
<rect x="115" y="45" width="11" height="11" rx="2" ry="2" fill="#26a641"/>
<rect x="129" y="45" width="11" height="11" rx="2" ry="2" fill="#161b22"/>
<rect x="143" y="45" width="11" height="11" rx="2" ry="2" fill="#161b22"/>
<rect x="157" y="45" width="11" height="11" rx="2" ry="2" fill="#161b22"/>
<rect x="171" y="45" width="11" height="11" rx="2" ry="2" fill="#39d353"/>
<rect x="185" y="45" width="11" height="11" rx="2" ry="2" fill="#26a641"/>
<rect x="199" y="45" width="11" height="11" rx="2" ry="2" fill="#26a641"/>
<rect x="213" y="45" width="11" height="11" rx="2" ry="2" fill="#26a641"/>
<rect x="227" y="45" width="11" height="11" rx="2" ry="2" fill="#26a641"/>
<rect x="241" y="45" width="11" height="11" rx="2" ry="2" fill="#161b22"/>
<rect x="255" y="45" width="11" height="11" rx="2" ry="2" fill="#39d353"/>
<rect x="269" y="45" width="11" height="11" rx="2" ry="2" fill="#161b22"/>
<rect x="283" y="45" width="11" height="11" rx="2" ry="2" fill="#161b22"/>
<rect x="297" y="45" width="11" height="11" rx="2" ry="2" fill="#161b22"/>
<rect x="311" y="45" width="11" height="11" rx="2" ry="2" fill="#39d353"/>
<rect x="325" y="45" width="11" height="11" rx="2" ry="2" fill="#161b22"/>
<rect x="339" y="45" width="11" height="11" rx="2" ry="2" fill="#39d353"/>
<rect x="353" y="45" width="11" height="11" rx="2" ry="2" fill="#39d353"/>
<rect x="367" y="45" width="11" height="11" rx="2" ry="2" fill="#39d353"/>
<rect x="381" y="45" width="11" height="11" rx="2" ry="2" fill="#39d353"/>
<rect x="395" y="45" width="11" height="11" rx="2" ry="2" fill="#39d353"/>
<rect x="409" y="45" width="11" height="11" rx="2" ry="2" fill="#161b22"/>
<rect x="423" y="45" width="11" height="11" rx="2" ry="2" fill="#26a641"/>
<rect x="437" y="45" width="11" height="11" rx="2" ry="2" fill="#161b22"/>
<rect x="451" y="45" width="11" height="11" rx="2" ry="2" fill="#161b22"/>
<rect x="465" y="45" width="11" height="11" rx="2" ry="2" fill="#161b22"/>
<rect x="479" y="45" width="11" height="11" rx="2" ry="2" fill="#26a641"/>
<rect x="493" y="45" width="11" height="11" rx="2" ry="2" fill="#161b22"/>
<rect x="507" y="45" width="11" height="11" rx="2" ry="2" fill="#161b22"/>
<rect x="521" y="45" width="11" height="11" rx="2" ry="2" fill="#161b22"/>
<rect x="535" y="45" width="11" height="11" rx="2" ry="2" fill="#161b22"/>
<rect x="549" y="45" width="11" height="11" rx="2" ry="2" fill="#161b22"/>
<rect x="563" y="45" width="11" height="11" rx="2" ry="2" fill="#161b22"/>
<rect x="3" y="59" width="11" height="11" rx="2" ry="2" fill="#161b22"/>
<rect x="17" y="59" width="11" height="11" rx="2" ry="2" fill="#161b22"/>
<rect x="31" y="59" width="11" height="11" rx="2" ry="2" fill="#161b22"/>
<rect x="45" y="59" width="11" height="11" rx="2" ry="2" fill="#161b22"/>
<rect x="59" y="59" width="11" height="11" rx="2" ry="2" fill="#161b22"/>
<rect x="73" y="59" width="11" height="11" rx="2" ry="2" fill="#161b22"/>
<rect x="87" y="59" width="11" height="11" rx="2" ry="2" fill="#161b22"/>
<rect x="101" y="59" width="11" height="11" rx="2" ry="2" fill="#161b22"/>
<rect x="115" y="59" width="11" height="11" rx="2" ry="2" fill="#26a641"/>
<rect x="129" y="59" width="11" height="11" rx="2" ry="2" fill="#161b22"/>
<rect x="143" y="59" width="11" height="11" rx="2" ry="2" fill="#161b22"/>
<rect x="157" y="59" width="11" height="11" rx="2" ry="2" fill="#161b22"/>
<rect x="171" y="59" width="11" height="11" rx="2" ry="2" fill="#26a641"/>
<rect x="185" y="59" width="11" height="11" rx="2" ry="2" fill="#161b22"/>
<rect x="199" y="59" width="11" height="11" rx="2" ry="2" fill="#161b22"/>
<rect x="213" y="59" width="11" height="11" rx="2" ry="2" fill="#161b22"/>
<rect x="227" y="59" width="11" height="11" rx="2" ry="2" fill="#39d353"/>
<rect x="241" y="59" width="11" height="11" rx="2" ry="2" fill="#161b22"/>
<rect x="255" y="59" width="11" height="11" rx="2" ry="2" fill="#39d353"/>
<rect x="269" y="59" width="11" height="11" rx="2" ry="2" fill="#161b22"/>
<rect x="283" y="59" width="11" height="11" rx="2" ry="2" fill="#161b22"/>
<rect x="297" y="59" width="11" height="11" rx="2" ry="2" fill="#161b22"/>
<rect x="311" y="59" width="11" height="11" rx="2" ry="2" fill="#39d353"/>
<rect x="325" y="59" width="11" height="11" rx="2" ry="2" fill="#161b22"/>
<rect x="339" y="59" width="11" height="11" rx="2" ry="2" fill="#39d353"/>
<rect x="353" y="59" width="11" height="11" rx="2" ry="2" fill="#161b22"/>
<rect x="367" y="59" width="11" height="11" rx="2" ry="2" fill="#161b22"/>
<rect x="381" y="59" width="11" height="11" rx="2" ry="2" fill="#161b22"/>
<rect x="395" y="59" width="11" height="11" rx="2" ry="2" fill="#39d353"/>
<rect x="409" y="59" width="11" height="11" rx="2" ry="2" fill="#161b22"/>
<rect x="423" y="59" width="11" height="11" rx="2" ry="2" fill="#26a641"/>
<rect x="437" y="59" width="11" height="11" rx="2" ry="2" fill="#161b22"/>
<rect x="451" y="59" width="11" height="11" rx="2" ry="2" fill="#161b22"/>
<rect x="465" y="59" width="11" height="11" rx="2" ry="2" fill="#161b22"/>
<rect x="479" y="59" width="11" height="11" rx="2" ry="2" fill="#26a641"/>
<rect x="493" y="59" width="11" height="11" rx="2" ry="2" fill="#161b22"/>
<rect x="507" y="59" width="11" height="11" rx="2" ry="2" fill="#161b22"/>
<rect x="521" y="59" width="11" height="11" rx="2" ry="2" fill="#161b22"/>
<rect x="535" y="59" width="11" height="11" rx="2" ry="2" fill="#161b22"/>
<rect x="549" y="59" width="11" height="11" rx="2" ry="2" fill="#161b22"/>
<rect x="563" y="59" width="11" height="11" rx="2" ry="2" fill="#161b22"/>
<rect x="3" y="73" width="11" height="11" rx="2" ry="2" fill="#161b22"/>
<rect x="17" y="73" width="11" height="11" rx="2" ry="2" fill="#161b22"/>
<rect x="31" y="73" width="11" height="11" rx="2" ry="2" fill="#161b22"/>
<rect x="45" y="73" width="11" height="11" rx="2" ry="2" fill="#161b22"/>
<rect x="59" y="73" width="11" height="11" rx="2" ry="2" fill="#161b22"/>
<rect x="73" y="73" width="11" height="11" rx="2" ry="2" fill="#161b22"/>
<rect x="87" y="73" width="11" height="11" rx="2" ry="2" fill="#161b22"/>
<rect x="101" y="73" width="11" height="11" rx="2" ry="2" fill="#161b22"/>
<rect x="115" y="73" width="11" height="11" rx="2" ry="2" fill="#39d353"/>
<rect x="129" y="73" width="11" height="11" rx="2" ry="2" fill="#161b22"/>
<rect x="143" y="73" width="11" height="11" rx="2" ry="2" fill="#161b22"/>
<rect x="157" y="73" width="11" height="11" rx="2" ry="2" fill="#161b22"/>
<rect x="171" y="73" width="11" height="11" rx="2" ry="2" fill="#26a641"/>
<rect x="185" y="73" width="11" height="11" rx="2" ry="2" fill="#161b22"/>
<rect x="199" y="73" width="11" height="11" rx="2" ry="2" fill="#161b22"/>
<rect x="213" y="73" width="11" height="11" rx="2" ry="2" fill="#161b22"/>
<rect x="227" y="73" width="11" height="11" rx="2" ry="2" fill="#39d353"/>
<rect x="241" y="73" width="11" height="11" rx="2" ry="2" fill="#161b22"/>
<rect x="255" y="73" width="11" height="11" rx="2" ry="2" fill="#26a641"/>
<rect x="269" y="73" width="11" height="11" rx="2" ry="2" fill="#161b22"/>
<rect x="283" y="73" width="11" height="11" rx="2" ry="2" fill="#161b22"/>
<rect x="297" y="73" width="11" height="11" rx="2" ry="2" fill="#161b22"/>
<rect x="311" y="73" width="11" height="11" rx="2" ry="2" fill="#39d353"/>
<rect x="325" y="73" width="11" height="11" rx="2" ry="2" fill="#161b22"/>
<rect x="339" y="73" width="11" height="11" rx="2" ry="2" fill="#39d353"/>
<rect x="353" y="73" width="11" height="11" rx="2" ry="2" fill="#161b22"/>
<rect x="367" y="73" width="11" height="11" rx="2" ry="2" fill="#161b22"/>
<rect x="381" y="73" width="11" height="11" rx="2" ry="2" fill="#161b22"/>
<rect x="395" y="73" width="11" height="11" rx="2" ry="2" fill="#26a641"/>
<rect x="409" y="73" width="11" height="11" rx="2" ry="2" fill="#161b22"/>
<rect x="423" y="73" width="11" height="11" rx="2" ry="2" fill="#26a641"/>
<rect x="437" y="73" width="11" height="11" rx="2" ry="2" fill="#161b22"/>
<rect x="451" y="73" width="11" height="11" rx="2" ry="2" fill="#161b22"/>
<rect x="465" y="73" width="11" height="11" rx="2" ry="2" fill="#161b22"/>
<rect x="479" y="73" width="11" height="11" rx="2" ry="2" fill="#39d353"/>
<rect x="493" y="73" width="11" height="11" rx="2" ry="2" fill="#161b22"/>
<rect x="507" y="73" width="11" height="11" rx="2" ry="2" fill="#161b22"/>
<rect x="521" y="73" width="11" height="11" rx="2" ry="2" fill="#161b22"/>
<rect x="535" y="73" width="11" height="11" rx="2" ry="2" fill="#161b22"/>
<rect x="549" y="73" width="11" height="11" rx="2" ry="2" fill="#161b22"/>
<rect x="563" y="73" width="11" height="11" rx="2" ry="2" fill="#161b22"/>
<rect x="3" y="87" width="11" height="11" rx="2" ry="2" fill="#161b22"/>
<rect x="17" y="87" width="11" height="11" rx="2" ry="2" fill="#161b22"/>
<rect x="31" y="87" width="11" height="11" rx="2" ry="2" fill="#161b22"/>
<rect x="45" y="87" width="11" height="11" rx="2" ry="2" fill="#161b22"/>
<rect x="59" y="87" width="11" height="11" rx="2" ry="2" fill="#161b22"/>
<rect x="73" y="87" width="11" height="11" rx="2" ry="2" fill="#161b22"/>
<rect x="87" y="87" width="11" height="11" rx="2" ry="2" fill="#161b22"/>
<rect x="101" y="87" width="11" height="11" rx="2" ry="2" fill="#161b22"/>
<rect x="115" y="87" width="11" height="11" rx="2" ry="2" fill="#39d353"/>
<rect x="129" y="87" width="11" height="11" rx="2" ry="2" fill="#161b22"/>
<rect x="143" y="87" width="11" height="11" rx="2" ry="2" fill="#161b22"/>
<rect x="157" y="87" width="11" height="11" rx="2" ry="2" fill="#161b22"/>
<rect x="171" y="87" width="11" height="11" rx="2" ry="2" fill="#39d353"/>
<rect x="185" y="87" width="11" height="11" rx="2" ry="2" fill="#161b22"/>
<rect x="199" y="87" width="11" height="11" rx="2" ry="2" fill="#161b22"/>
<rect x="213" y="87" width="11" height="11" rx="2" ry="2" fill="#161b22"/>
<rect x="227" y="87" width="11" height="11" rx="2" ry="2" fill="#39d353"/>
<rect x="241" y="87" width="11" height="11" rx="2" ry="2" fill="#161b22"/>
<rect x="255" y="87" width="11" height="11" rx="2" ry="2" fill="#39d353"/>
<rect x="269" y="87" width="11" height="11" rx="2" ry="2" fill="#26a641"/>
<rect x="283" y="87" width="11" height="11" rx="2" ry="2" fill="#26a641"/>
<rect x="297" y="87" width="11" height="11" rx="2" ry="2" fill="#39d353"/>
<rect x="311" y="87" width="11" height="11" rx="2" ry="2" fill="#161b22"/>
<rect x="325" y="87" width="11" height="11" rx="2" ry="2" fill="#161b22"/>
<rect x="339" y="87" width="11" height="11" rx="2" ry="2" fill="#39d353"/>
<rect x="353" y="87" width="11" height="11" rx="2" ry="2" fill="#161b22"/>
<rect x="367" y="87" width="11" height="11" rx="2" ry="2" fill="#161b22"/>
<rect x="381" y="87" width="11" height="11" rx="2" ry="2" fill="#161b22"/>
<rect x="395" y="87" width="11" height="11" rx="2" ry="2" fill="#26a641"/>
<rect x="409" y="87" width="11" height="11" rx="2" ry="2" fill="#161b22"/>
<rect x="423" y="87" width="11" height="11" rx="2" ry="2" fill="#161b22"/>
<rect x="437" y="87" width="11" height="11" rx="2" ry="2" fill="#26a641"/>
<rect x="451" y="87" width="11" height="11" rx="2" ry="2" fill="#39d353"/>
<rect x="465" y="87" width="11" height="11" rx="2" ry="2" fill="#39d353"/>
<rect x="479" y="87" width="11" height="11" rx="2" ry="2" fill="#161b22"/>
<rect x="493" y="87" width="11" height="11" rx="2" ry="2" fill="#161b22"/>
<rect x="507" y="87" width="11" height="11" rx="2" ry="2" fill="#161b22"/>
<rect x="521" y="87" width="11" height="11" rx="2" ry="2" fill="#161b22"/>
<rect x="535" y="87" width="11" height="11" rx="2" ry="2" fill="#161b22"/>
<rect x="549" y="87" width="11" height="11" rx="2" ry="2" fill="#161b22"/>
<rect x="563" y="87" width="11" height="11" rx="2" ry="2" fill="#161b22"/>
<rect x="3" y="101" width="11" height="11" rx="2" ry="2" fill="#161b22"/>
<rect x="17" y="101" width="11" height="11" rx="2" ry="2" fill="#161b22"/>
<rect x="31" y="101" width="11" height="11" rx="2" ry="2" fill="#161b22"/>
<rect x="45" y="101" width="11" height="11" rx="2" ry="2" fill="#161b22"/>
<rect x="59" y="101" width="11" height="11" rx="2" ry="2" fill="#161b22"/>
<rect x="73" y="101" width="11" height="11" rx="2" ry="2" fill="#161b22"/>
<rect x="87" y="101" width="11" height="11" rx="2" ry="2" fill="#161b22"/>
<rect x="101" y="101" width="11" height="11" rx="2" ry="2" fill="#161b22"/>
<rect x="115" y="101" width="11" height="11" rx="2" ry="2" fill="#161b22"/>
<rect x="129" y="101" width="11" height="11" rx="2" ry="2" fill="#161b22"/>
<rect x="143" y="101" width="11" height="11" rx="2" ry="2" fill="#161b22"/>
<rect x="157" y="101" width="11" height="11" rx="2" ry="2" fill="#161b22"/>
<rect x="171" y="101" width="11" height="11" rx="2" ry="2" fill="#161b22"/>
<rect x="185" y="101" width="11" height="11" rx="2" ry="2" fill="#161b22"/>
<rect x="199" y="101" width="11" height="11" rx="2" ry="2" fill="#161b22"/>
<rect x="213" y="101" width="11" height="11" rx="2" ry="2" fill="#161b22"/>
<rect x="227" y="101" width="11" height="11" rx="2" ry="2" fill="#161b22"/>
<rect x="241" y="101" width="11" height="11" rx="2" ry="2" fill="#161b22"/>
<rect x="255" y="101" width="11" height="11" rx="2" ry="2" fill="#161b22"/>
<rect x="269" y="101" width="11" height="11" rx="2" ry="2" fill="#161b22"/>
<rect x="283" y="101" width="11" height="11" rx="2" ry="2" fill="#161b22"/>
<rect x="297" y="101" width="11" height="11" rx="2" ry="2" fill="#161b22"/>
<rect x="311" y="101" width="11" height="11" rx="2" ry="2" fill="#161b22"/>
<rect x="325" y="101" width="11" height="11" rx="2" ry="2" fill="#161b22"/>
<rect x="339" y="101" width="11" height="11" rx="2" ry="2" fill="#161b22"/>
<rect x="353" y="101" width="11" height="11" rx="2" ry="2" fill="#161b22"/>
<rect x="367" y="101" width="11" height="11" rx="2" ry="2" fill="#161b22"/>
<rect x="381" y="101" width="11" height="11" rx="2" ry="2" fill="#161b22"/>
<rect x="395" y="101" width="11" height="11" rx="2" ry="2" fill="#161b22"/>
<rect x="409" y="101" width="11" height="11" rx="2" ry="2" fill="#161b22"/>
<rect x="423" y="101" width="11" height="11" rx="2" ry="2" fill="#161b22"/>
<rect x="437" y="101" width="11" height="11" rx="2" ry="2" fill="#161b22"/>
<rect x="451" y="101" width="11" height="11" rx="2" ry="2" fill="#161b22"/>
<rect x="465" y="101" width="11" height="11" rx="2" ry="2" fill="#161b22"/>
<rect x="479" y="101" width="11" height="11" rx="2" ry="2" fill="#161b22"/>
<rect x="493" y="101" width="11" height="11" rx="2" ry="2" fill="#161b22"/>
<rect x="507" y="101" width="11" height="11" rx="2" ry="2" fill="#161b22"/>
<rect x="521" y="101" width="11" height="11" rx="2" ry="2" fill="#161b22"/>
<rect x="535" y="101" width="11" height="11" rx="2" ry="2" fill="#161b22"/>
<rect x="549" y="101" width="11" height="11" rx="2" ry="2" fill="#161b22"/>
<rect x="563" y="101" width="11" height="11" rx="2" ry="2" fill="#161b22"/>
<rect x="3" y="115" width="11" height="11" rx="2" ry="2" fill="#39d353"/>
<rect x="17" y="115" width="11" height="11" rx="2" ry="2" fill="#161b22"/>
<rect x="31" y="115" width="11" height="11" rx="2" ry="2" fill="#161b22"/>
<rect x="45" y="115" width="11" height="11" rx="2" ry="2" fill="#161b22"/>
<rect x="59" y="115" width="11" height="11" rx="2" ry="2" fill="#39d353"/>
<rect x="73" y="115" width="11" height="11" rx="2" ry="2" fill="#161b22"/>
<rect x="87" y="115" width="11" height="11" rx="2" ry="2" fill="#39d353"/>
<rect x="101" y="115" width="11" height="11" rx="2" ry="2" fill="#26a641"/>
<rect x="115" y="115" width="11" height="11" rx="2" ry="2" fill="#39d353"/>
<rect x="129" y="115" width="11" height="11" rx="2" ry="2" fill="#39d353"/>
<rect x="143" y="115" width="11" height="11" rx="2" ry="2" fill="#161b22"/>
<rect x="157" y="115" width="11" height="11" rx="2" ry="2" fill="#161b22"/>
<rect x="171" y="115" width="11" height="11" rx="2" ry="2" fill="#26a641"/>
<rect x="185" y="115" width="11" height="11" rx="2" ry="2" fill="#26a641"/>
<rect x="199" y="115" width="11" height="11" rx="2" ry="2" fill="#39d353"/>
<rect x="213" y="115" width="11" height="11" rx="2" ry="2" fill="#26a641"/>
<rect x="227" y="115" width="11" height="11" rx="2" ry="2" fill="#26a641"/>
<rect x="241" y="115" width="11" height="11" rx="2" ry="2" fill="#161b22"/>
<rect x="255" y="115" width="11" height="11" rx="2" ry="2" fill="#161b22"/>
<rect x="269" y="115" width="11" height="11" rx="2" ry="2" fill="#39d353"/>
<rect x="283" y="115" width="11" height="11" rx="2" ry="2" fill="#26a641"/>
<rect x="297" y="115" width="11" height="11" rx="2" ry="2" fill="#26a641"/>
<rect x="311" y="115" width="11" height="11" rx="2" ry="2" fill="#39d353"/>
<rect x="325" y="115" width="11" height="11" rx="2" ry="2" fill="#161b22"/>
<rect x="339" y="115" width="11" height="11" rx="2" ry="2" fill="#39d353"/>
<rect x="353" y="115" width="11" height="11" rx="2" ry="2" fill="#161b22"/>
<rect x="367" y="115" width="11" height="11" rx="2" ry="2" fill="#161b22"/>
<rect x="381" y="115" width="11" height="11" rx="2" ry="2" fill="#161b22"/>
<rect x="395" y="115" width="11" height="11" rx="2" ry="2" fill="#39d353"/>
<rect x="409" y="115" width="11" height="11" rx="2" ry="2" fill="#161b22"/>
<rect x="423" y="115" width="11" height="11" rx="2" ry="2" fill="#26a641"/>
<rect x="437" y="115" width="11" height="11" rx="2" ry="2" fill="#161b22"/>
<rect x="451" y="115" width="11" height="11" rx="2" ry="2" fill="#161b22"/>
<rect x="465" y="115" width="11" height="11" rx="2" ry="2" fill="#161b22"/>
<rect x="479" y="115" width="11" height="11" rx="2" ry="2" fill="#26a641"/>
<rect x="493" y="115" width="11" height="11" rx="2" ry="2" fill="#161b22"/>
<rect x="507" y="115" width="11" height="11" rx="2" ry="2" fill="#161b22"/>
<rect x="521" y="115" width="11" height="11" rx="2" ry="2" fill="#39d353"/>
<rect x="535" y="115" width="11" height="11" rx="2" ry="2" fill="#39d353"/>
<rect x="549" y="115" width="11" height="11" rx="2" ry="2" fill="#39d353"/>
<rect x="563" y="115" width="11" height="11" rx="2" ry="2" fill="#161b22"/>
<rect x="3" y="129" width="11" height="11" rx="2" ry="2" fill="#26a641"/>
<rect x="17" y="129" width="11" height="11" rx="2" ry="2" fill="#161b22"/>
<rect x="31" y="129" width="11" height="11" rx="2" ry="2" fill="#161b22"/>
<rect x="45" y="129" width="11" height="11" rx="2" ry="2" fill="#39d353"/>
<rect x="59" y="129" width="11" height="11" rx="2" ry="2" fill="#161b22"/>
<rect x="73" y="129" width="11" height="11" rx="2" ry="2" fill="#161b22"/>
<rect x="87" y="129" width="11" height="11" rx="2" ry="2" fill="#39d353"/>
<rect x="101" y="129" width="11" height="11" rx="2" ry="2" fill="#161b22"/>
<rect x="115" y="129" width="11" height="11" rx="2" ry="2" fill="#161b22"/>
<rect x="129" y="129" width="11" height="11" rx="2" ry="2" fill="#161b22"/>
<rect x="143" y="129" width="11" height="11" rx="2" ry="2" fill="#39d353"/>
<rect x="157" y="129" width="11" height="11" rx="2" ry="2" fill="#161b22"/>
<rect x="171" y="129" width="11" height="11" rx="2" ry="2" fill="#161b22"/>
<rect x="185" y="129" width="11" height="11" rx="2" ry="2" fill="#161b22"/>
<rect x="199" y="129" width="11" height="11" rx="2" ry="2" fill="#39d353"/>
<rect x="213" y="129" width="11" height="11" rx="2" ry="2" fill="#161b22"/>
<rect x="227" y="129" width="11" height="11" rx="2" ry="2" fill="#161b22"/>
<rect x="241" y="129" width="11" height="11" rx="2" ry="2" fill="#161b22"/>
<rect x="255" y="129" width="11" height="11" rx="2" ry="2" fill="#39d353"/>
<rect x="269" y="129" width="11" height="11" rx="2" ry="2" fill="#161b22"/>
<rect x="283" y="129" width="11" height="11" rx="2" ry="2" fill="#161b22"/>
<rect x="297" y="129" width="11" height="11" rx="2" ry="2" fill="#161b22"/>
<rect x="311" y="129" width="11" height="11" rx="2" ry="2" fill="#161b22"/>
<rect x="325" y="129" width="11" height="11" rx="2" ry="2" fill="#161b22"/>
<rect x="339" y="129" width="11" height="11" rx="2" ry="2" fill="#26a641"/>
<rect x="353" y="129" width="11" height="11" rx="2" ry="2" fill="#161b22"/>
<rect x="367" y="129" width="11" height="11" rx="2" ry="2" fill="#161b22"/>
<rect x="381" y="129" width="11" height="11" rx="2" ry="2" fill="#161b22"/>
<rect x="395" y="129" width="11" height="11" rx="2" ry="2" fill="#26a641"/>
<rect x="409" y="129" width="11" height="11" rx="2" ry="2" fill="#161b22"/>
<rect x="423" y="129" width="11" height="11" rx="2" ry="2" fill="#26a641"/>
<rect x="437" y="129" width="11" height="11" rx="2" ry="2" fill="#26a641"/>
<rect x="451" y="129" width="11" height="11" rx="2" ry="2" fill="#161b22"/>
<rect x="465" y="129" width="11" height="11" rx="2" ry="2" fill="#161b22"/>
<rect x="479" y="129" width="11" height="11" rx="2" ry="2" fill="#26a641"/>
<rect x="493" y="129" width="11" height="11" rx="2" ry="2" fill="#161b22"/>
<rect x="507" y="129" width="11" height="11" rx="2" ry="2" fill="#26a641"/>
<rect x="521" y="129" width="11" height="11" rx="2" ry="2" fill="#161b22"/>
<rect x="535" y="129" width="11" height="11" rx="2" ry="2" fill="#161b22"/>
<rect x="549" y="129" width="11" height="11" rx="2" ry="2" fill="#161b22"/>
<rect x="563" y="129" width="11" height="11" rx="2" ry="2" fill="#26a641"/>
<rect x="3" y="143" width="11" height="11" rx="2" ry="2" fill="#26a641"/>
<rect x="17" y="143" width="11" height="11" rx="2" ry="2" fill="#161b22"/>
<rect x="31" y="143" width="11" height="11" rx="2" ry="2" fill="#39d353"/>
<rect x="45" y="143" width="11" height="11" rx="2" ry="2" fill="#161b22"/>
<rect x="59" y="143" width="11" height="11" rx="2" ry="2" fill="#161b22"/>
<rect x="73" y="143" width="11" height="11" rx="2" ry="2" fill="#161b22"/>
<rect x="87" y="143" width="11" height="11" rx="2" ry="2" fill="#26a641"/>
<rect x="101" y="143" width="11" height="11" rx="2" ry="2" fill="#161b22"/>
<rect x="115" y="143" width="11" height="11" rx="2" ry="2" fill="#161b22"/>
<rect x="129" y="143" width="11" height="11" rx="2" ry="2" fill="#161b22"/>
<rect x="143" y="143" width="11" height="11" rx="2" ry="2" fill="#39d353"/>
<rect x="157" y="143" width="11" height="11" rx="2" ry="2" fill="#161b22"/>
<rect x="171" y="143" width="11" height="11" rx="2" ry="2" fill="#161b22"/>
<rect x="185" y="143" width="11" height="11" rx="2" ry="2" fill="#161b22"/>
<rect x="199" y="143" width="11" height="11" rx="2" ry="2" fill="#39d353"/>
<rect x="213" y="143" width="11" height="11" rx="2" ry="2" fill="#161b22"/>
<rect x="227" y="143" width="11" height="11" rx="2" ry="2" fill="#161b22"/>
<rect x="241" y="143" width="11" height="11" rx="2" ry="2" fill="#161b22"/>
<rect x="255" y="143" width="11" height="11" rx="2" ry="2" fill="#26a641"/>
<rect x="269" y="143" width="11" height="11" rx="2" ry="2" fill="#161b22"/>
<rect x="283" y="143" width="11" height="11" rx="2" ry="2" fill="#161b22"/>
<rect x="297" y="143" width="11" height="11" rx="2" ry="2" fill="#161b22"/>
<rect x="311" y="143" width="11" height="11" rx="2" ry="2" fill="#161b22"/>
<rect x="325" y="143" width="11" height="11" rx="2" ry="2" fill="#161b22"/>
<rect x="339" y="143" width="11" height="11" rx="2" ry="2" fill="#26a641"/>
<rect x="353" y="143" width="11" height="11" rx="2" ry="2" fill="#161b22"/>
<rect x="367" y="143" width="11" height="11" rx="2" ry="2" fill="#161b22"/>
<rect x="381" y="143" width="11" height="11" rx="2" ry="2" fill="#161b22"/>
<rect x="395" y="143" width="11" height="11" rx="2" ry="2" fill="#39d353"/>
<rect x="409" y="143" width="11" height="11" rx="2" ry="2" fill="#161b22"/>
<rect x="423" y="143" width="11" height="11" rx="2" ry="2" fill="#39d353"/>
<rect x="437" y="143" width="11" height="11" rx="2" ry="2" fill="#161b22"/>
<rect x="451" y="143" width="11" height="11" rx="2" ry="2" fill="#39d353"/>
<rect x="465" y="143" width="11" height="11" rx="2" ry="2" fill="#161b22"/>
<rect x="479" y="143" width="11" height="11" rx="2" ry="2" fill="#26a641"/>
<rect x="493" y="143" width="11" height="11" rx="2" ry="2" fill="#161b22"/>
<rect x="507" y="143" width="11" height="11" rx="2" ry="2" fill="#26a641"/>
<rect x="521" y="143" width="11" height="11" rx="2" ry="2" fill="#161b22"/>
<rect x="535" y="143" width="11" height="11" rx="2" ry="2" fill="#161b22"/>
<rect x="549" y="143" width="11" height="11" rx="2" ry="2" fill="#161b22"/>
<rect x="563" y="143" width="11" height="11" rx="2" ry="2" fill="#39d353"/>
<rect x="3" y="157" width="11" height="11" rx="2" ry="2" fill="#39d353"/>
<rect x="17" y="157" width="11" height="11" rx="2" ry="2" fill="#39d353"/>
<rect x="31" y="157" width="11" height="11" rx="2" ry="2" fill="#161b22"/>
<rect x="45" y="157" width="11" height="11" rx="2" ry="2" fill="#161b22"/>
<rect x="59" y="157" width="11" height="11" rx="2" ry="2" fill="#161b22"/>
<rect x="73" y="157" width="11" height="11" rx="2" ry="2" fill="#161b22"/>
<rect x="87" y="157" width="11" height="11" rx="2" ry="2" fill="#39d353"/>
<rect x="101" y="157" width="11" height="11" rx="2" ry="2" fill="#39d353"/>
<rect x="115" y="157" width="11" height="11" rx="2" ry="2" fill="#26a641"/>
<rect x="129" y="157" width="11" height="11" rx="2" ry="2" fill="#39d353"/>
<rect x="143" y="157" width="11" height="11" rx="2" ry="2" fill="#161b22"/>
<rect x="157" y="157" width="11" height="11" rx="2" ry="2" fill="#161b22"/>
<rect x="171" y="157" width="11" height="11" rx="2" ry="2" fill="#161b22"/>
<rect x="185" y="157" width="11" height="11" rx="2" ry="2" fill="#161b22"/>
<rect x="199" y="157" width="11" height="11" rx="2" ry="2" fill="#39d353"/>
<rect x="213" y="157" width="11" height="11" rx="2" ry="2" fill="#161b22"/>
<rect x="227" y="157" width="11" height="11" rx="2" ry="2" fill="#161b22"/>
<rect x="241" y="157" width="11" height="11" rx="2" ry="2" fill="#161b22"/>
<rect x="255" y="157" width="11" height="11" rx="2" ry="2" fill="#161b22"/>
<rect x="269" y="157" width="11" height="11" rx="2" ry="2" fill="#26a641"/>
<rect x="283" y="157" width="11" height="11" rx="2" ry="2" fill="#26a641"/>
<rect x="297" y="157" width="11" height="11" rx="2" ry="2" fill="#26a641"/>
<rect x="311" y="157" width="11" height="11" rx="2" ry="2" fill="#161b22"/>
<rect x="325" y="157" width="11" height="11" rx="2" ry="2" fill="#161b22"/>
<rect x="339" y="157" width="11" height="11" rx="2" ry="2" fill="#26a641"/>
<rect x="353" y="157" width="11" height="11" rx="2" ry="2" fill="#39d353"/>
<rect x="367" y="157" width="11" height="11" rx="2" ry="2" fill="#26a641"/>
<rect x="381" y="157" width="11" height="11" rx="2" ry="2" fill="#26a641"/>
<rect x="395" y="157" width="11" height="11" rx="2" ry="2" fill="#39d353"/>
<rect x="409" y="157" width="11" height="11" rx="2" ry="2" fill="#161b22"/>
<rect x="423" y="157" width="11" height="11" rx="2" ry="2" fill="#26a641"/>
<rect x="437" y="157" width="11" height="11" rx="2" ry="2" fill="#161b22"/>
<rect x="451" y="157" width="11" height="11" rx="2" ry="2" fill="#161b22"/>
<rect x="465" y="157" width="11" height="11" rx="2" ry="2" fill="#26a641"/>
<rect x="479" y="157" width="11" height="11" rx="2" ry="2" fill="#26a641"/>
<rect x="493" y="157" width="11" height="11" rx="2" ry="2" fill="#161b22"/>
<rect x="507" y="157" width="11" height="11" rx="2" ry="2" fill="#26a641"/>
<rect x="521" y="157" width="11" height="11" rx="2" ry="2" fill="#26a641"/>
<rect x="535" y="157" width="11" height="11" rx="2" ry="2" fill="#39d353"/>
<rect x="549" y="157" width="11" height="11" rx="2" ry="2" fill="#26a641"/>
<rect x="563" y="157" width="11" height="11" rx="2" ry="2" fill="#26a641"/>
<rect x="3" y="171" width="11" height="11" rx="2" ry="2" fill="#26a641"/>
<rect x="17" y="171" width="11" height="11" rx="2" ry="2" fill="#161b22"/>
<rect x="31" y="171" width="11" height="11" rx="2" ry="2" fill="#39d353"/>
<rect x="45" y="171" width="11" height="11" rx="2" ry="2" fill="#161b22"/>
<rect x="59" y="171" width="11" height="11" rx="2" ry="2" fill="#161b22"/>
<rect x="73" y="171" width="11" height="11" rx="2" ry="2" fill="#161b22"/>
<rect x="87" y="171" width="11" height="11" rx="2" ry="2" fill="#26a641"/>
<rect x="101" y="171" width="11" height="11" rx="2" ry="2" fill="#161b22"/>
<rect x="115" y="171" width="11" height="11" rx="2" ry="2" fill="#39d353"/>
<rect x="129" y="171" width="11" height="11" rx="2" ry="2" fill="#161b22"/>
<rect x="143" y="171" width="11" height="11" rx="2" ry="2" fill="#161b22"/>
<rect x="157" y="171" width="11" height="11" rx="2" ry="2" fill="#161b22"/>
<rect x="171" y="171" width="11" height="11" rx="2" ry="2" fill="#161b22"/>
<rect x="185" y="171" width="11" height="11" rx="2" ry="2" fill="#161b22"/>
<rect x="199" y="171" width="11" height="11" rx="2" ry="2" fill="#39d353"/>
<rect x="213" y="171" width="11" height="11" rx="2" ry="2" fill="#161b22"/>
<rect x="227" y="171" width="11" height="11" rx="2" ry="2" fill="#161b22"/>
<rect x="241" y="171" width="11" height="11" rx="2" ry="2" fill="#161b22"/>
<rect x="255" y="171" width="11" height="11" rx="2" ry="2" fill="#161b22"/>
<rect x="269" y="171" width="11" height="11" rx="2" ry="2" fill="#161b22"/>
<rect x="283" y="171" width="11" height="11" rx="2" ry="2" fill="#161b22"/>
<rect x="297" y="171" width="11" height="11" rx="2" ry="2" fill="#161b22"/>
<rect x="311" y="171" width="11" height="11" rx="2" ry="2" fill="#39d353"/>
<rect x="325" y="171" width="11" height="11" rx="2" ry="2" fill="#161b22"/>
<rect x="339" y="171" width="11" height="11" rx="2" ry="2" fill="#39d353"/>
<rect x="353" y="171" width="11" height="11" rx="2" ry="2" fill="#161b22"/>
<rect x="367" y="171" width="11" height="11" rx="2" ry="2" fill="#161b22"/>
<rect x="381" y="171" width="11" height="11" rx="2" ry="2" fill="#161b22"/>
<rect x="395" y="171" width="11" height="11" rx="2" ry="2" fill="#26a641"/>
<rect x="409" y="171" width="11" height="11" rx="2" ry="2" fill="#161b22"/>
<rect x="423" y="171" width="11" height="11" rx="2" ry="2" fill="#26a641"/>
<rect x="437" y="171" width="11" height="11" rx="2" ry="2" fill="#161b22"/>
<rect x="451" y="171" width="11" height="11" rx="2" ry="2" fill="#161b22"/>
<rect x="465" y="171" width="11" height="11" rx="2" ry="2" fill="#161b22"/>
<rect x="479" y="171" width="11" height="11" rx="2" ry="2" fill="#39d353"/>
<rect x="493" y="171" width="11" height="11" rx="2" ry="2" fill="#161b22"/>
<rect x="507" y="171" width="11" height="11" rx="2" ry="2" fill="#39d353"/>
<rect x="521" y="171" width="11" height="11" rx="2" ry="2" fill="#161b22"/>
<rect x="535" y="171" width="11" height="11" rx="2" ry="2" fill="#161b22"/>
<rect x="549" y="171" width="11" height="11" rx="2" ry="2" fill="#161b22"/>
<rect x="563" y="171" width="11" height="11" rx="2" ry="2" fill="#39d353"/>
<rect x="3" y="185" width="11" height="11" rx="2" ry="2" fill="#39d353"/>
<rect x="17" y="185" width="11" height="11" rx="2" ry="2" fill="#161b22"/>
<rect x="31" y="185" width="11" height="11" rx="2" ry="2" fill="#161b22"/>
<rect x="45" y="185" width="11" height="11" rx="2" ry="2" fill="#39d353"/>
<rect x="59" y="185" width="11" height="11" rx="2" ry="2" fill="#161b22"/>
<rect x="73" y="185" width="11" height="11" rx="2" ry="2" fill="#161b22"/>
<rect x="87" y="185" width="11" height="11" rx="2" ry="2" fill="#26a641"/>
<rect x="101" y="185" width="11" height="11" rx="2" ry="2" fill="#161b22"/>
<rect x="115" y="185" width="11" height="11" rx="2" ry="2" fill="#161b22"/>
<rect x="129" y="185" width="11" height="11" rx="2" ry="2" fill="#26a641"/>
<rect x="143" y="185" width="11" height="11" rx="2" ry="2" fill="#161b22"/>
<rect x="157" y="185" width="11" height="11" rx="2" ry="2" fill="#161b22"/>
<rect x="171" y="185" width="11" height="11" rx="2" ry="2" fill="#161b22"/>
<rect x="185" y="185" width="11" height="11" rx="2" ry="2" fill="#161b22"/>
<rect x="199" y="185" width="11" height="11" rx="2" ry="2" fill="#26a641"/>
<rect x="213" y="185" width="11" height="11" rx="2" ry="2" fill="#161b22"/>
<rect x="227" y="185" width="11" height="11" rx="2" ry="2" fill="#161b22"/>
<rect x="241" y="185" width="11" height="11" rx="2" ry="2" fill="#161b22"/>
<rect x="255" y="185" width="11" height="11" rx="2" ry="2" fill="#161b22"/>
<rect x="269" y="185" width="11" height="11" rx="2" ry="2" fill="#161b22"/>
<rect x="283" y="185" width="11" height="11" rx="2" ry="2" fill="#161b22"/>
<rect x="297" y="185" width="11" height="11" rx="2" ry="2" fill="#161b22"/>
<rect x="311" y="185" width="11" height="11" rx="2" ry="2" fill="#39d353"/>
<rect x="325" y="185" width="11" height="11" rx="2" ry="2" fill="#161b22"/>
<rect x="339" y="185" width="11" height="11" rx="2" ry="2" fill="#39d353"/>
<rect x="353" y="185" width="11" height="11" rx="2" ry="2" fill="#161b22"/>
<rect x="367" y="185" width="11" height="11" rx="2" ry="2" fill="#161b22"/>
<rect x="381" y="185" width="11" height="11" rx="2" ry="2" fill="#161b22"/>
<rect x="395" y="185" width="11" height="11" rx="2" ry="2" fill="#39d353"/>
<rect x="409" y="185" width="11" height="11" rx="2" ry="2" fill="#161b22"/>
<rect x="423" y="185" width="11" height="11" rx="2" ry="2" fill="#26a641"/>
<rect x="437" y="185" width="11" height="11" rx="2" ry="2" fill="#161b22"/>
<rect x="451" y="185" width="11" height="11" rx="2" ry="2" fill="#161b22"/>
<rect x="465" y="185" width="11" height="11" rx="2" ry="2" fill="#161b22"/>
<rect x="479" y="185" width="11" height="11" rx="2" ry="2" fill="#26a641"/>
<rect x="493" y="185" width="11" height="11" rx="2" ry="2" fill="#161b22"/>
<rect x="507" y="185" width="11" height="11" rx="2" ry="2" fill="#26a641"/>
<rect x="521" y="185" width="11" height="11" rx="2" ry="2" fill="#161b22"/>
<rect x="535" y="185" width="11" height="11" rx="2" ry="2" fill="#161b22"/>
<rect x="549" y="185" width="11" height="11" rx="2" ry="2" fill="#161b22"/>
<rect x="563" y="185" width="11" height="11" rx="2" ry="2" fill="#39d353"/>
<rect x="3" y="199" width="11" height="11" rx="2" ry="2" fill="#26a641"/>
<rect x="17" y="199" width="11" height="11" rx="2" ry="2" fill="#161b22"/>
<rect x="31" y="199" width="11" height="11" rx="2" ry="2" fill="#161b22"/>
<rect x="45" y="199" width="11" height="11" rx="2" ry="2" fill="#161b22"/>
<rect x="59" y="199" width="11" height="11" rx="2" ry="2" fill="#26a641"/>
<rect x="73" y="199" width="11" height="11" rx="2" ry="2" fill="#161b22"/>
<rect x="87" y="199" width="11" height="11" rx="2" ry="2" fill="#39d353"/>
<rect x="101" y="199" width="11" height="11" rx="2" ry="2" fill="#161b22"/>
<rect x="115" y="199" width="11" height="11" rx="2" ry="2" fill="#161b22"/>
<rect x="129" y="199" width="11" height="11" rx="2" ry="2" fill="#161b22"/>
<rect x="143" y="199" width="11" height="11" rx="2" ry="2" fill="#26a641"/>
<rect x="157" y="199" width="11" height="11" rx="2" ry="2" fill="#161b22"/>
<rect x="171" y="199" width="11" height="11" rx="2" ry="2" fill="#39d353"/>
<rect x="185" y="199" width="11" height="11" rx="2" ry="2" fill="#39d353"/>
<rect x="199" y="199" width="11" height="11" rx="2" ry="2" fill="#26a641"/>
<rect x="213" y="199" width="11" height="11" rx="2" ry="2" fill="#39d353"/>
<rect x="227" y="199" width="11" height="11" rx="2" ry="2" fill="#26a641"/>
<rect x="241" y="199" width="11" height="11" rx="2" ry="2" fill="#161b22"/>
<rect x="255" y="199" width="11" height="11" rx="2" ry="2" fill="#39d353"/>
<rect x="269" y="199" width="11" height="11" rx="2" ry="2" fill="#26a641"/>
<rect x="283" y="199" width="11" height="11" rx="2" ry="2" fill="#26a641"/>
<rect x="297" y="199" width="11" height="11" rx="2" ry="2" fill="#26a641"/>
<rect x="311" y="199" width="11" height="11" rx="2" ry="2" fill="#161b22"/>
<rect x="325" y="199" width="11" height="11" rx="2" ry="2" fill="#161b22"/>
<rect x="339" y="199" width="11" height="11" rx="2" ry="2" fill="#39d353"/>
<rect x="353" y="199" width="11" height="11" rx="2" ry="2" fill="#161b22"/>
<rect x="367" y="199" width="11" height="11" rx="2" ry="2" fill="#161b22"/>
<rect x="381" y="199" width="11" height="11" rx="2" ry="2" fill="#161b22"/>
<rect x="395" y="199" width="11" height="11" rx="2" ry="2" fill="#26a641"/>
<rect x="409" y="199" width="11" height="11" rx="2" ry="2" fill="#161b22"/>
<rect x="423" y="199" width="11" height="11" rx="2" ry="2" fill="#26a641"/>
<rect x="437" y="199" width="11" height="11" rx="2" ry="2" fill="#161b22"/>
<rect x="451" y="199" width="11" height="11" rx="2" ry="2" fill="#161b22"/>
<rect x="465" y="199" width="11" height="11" rx="2" ry="2" fill="#161b22"/>
<rect x="479" y="199" width="11" height="11" rx="2" ry="2" fill="#39d353"/>
<rect x="493" y="199" width="11" height="11" rx="2" ry="2" fill="#161b22"/>
<rect x="507" y="199" width="11" height="11" rx="2" ry="2" fill="#39d353"/>
<rect x="521" y="199" width="11" height="11" rx="2" ry="2" fill="#161b22"/>
<rect x="535" y="199" width="11" height="11" rx="2" ry="2" fill="#161b22"/>
<rect x="549" y="199" width="11" height="11" rx="2" ry="2" fill="#161b22"/>
<rect x="563" y="199" width="11" height="11" rx="2" ry="2" fill="#26a641"/>
</svg>